<?xml version="1.0" standalone="no"?>
<!DOCTYPE svg PUBLIC "-//W3C//DTD SVG 20010904//EN"
 "http://www.w3.org/TR/2001/REC-SVG-20010904/DTD/svg10.dtd">
<svg version="1.0" xmlns="http://www.w3.org/2000/svg"
 width="2000.000000pt" height="2225.000000pt" viewBox="0 0 2000.000000 2225.000000"
 preserveAspectRatio="xMidYMid meet">

<g transform="translate(0.000000,2225.000000) scale(0.100000,-0.100000)"
fill="#000000" stroke="none">
<path d="M17730 22243 c-196 -30 -396 -88 -703 -203 -216 -80 -216 -80 -314
-80 -342 -1 -957 -61 -1486 -145 -445 -71 -797 -140 -1757 -345 -666 -142
-954 -201 -1285 -261 l-220 -40 -495 0 c-583 1 -992 12 -2555 71 -1078 40
-2051 37 -2795 -10 -1623 -102 -2973 -428 -4238 -1024 -147 -69 -168 -82 -230
-144 -82 -83 -162 -126 -452 -242 -491 -197 -701 -345 -890 -625 -277 -410
-359 -1015 -260 -1905 11 -96 26 -240 35 -320 25 -230 80 -604 151 -1020 36
-212 85 -502 109 -645 116 -685 175 -1203 175 -1542 0 -139 10 -198 34 -190 6
2 26 27 45 55 39 60 58 66 66 20 68 -396 103 -494 202 -575 132 -108 160 -142
202 -243 l23 -56 -26 -184 c-46 -326 -57 -478 -63 -875 -8 -544 14 -871 107
-1610 27 -214 52 -411 56 -436 l6 -46 -58 -49 c-33 -27 -105 -77 -161 -111
-204 -126 -286 -229 -367 -461 -56 -162 -86 -323 -96 -517 -13 -248 -31 -339
-74 -374 -13 -11 -23 -10 -56 3 -22 9 -53 16 -69 16 -39 0 -89 -44 -114 -99
-18 -41 -19 -58 -13 -225 9 -223 -2 -362 -55 -691 -70 -434 -73 -617 -18 -872
21 -95 21 -102 5 -238 -8 -77 -18 -183 -21 -235 -8 -133 10 -455 45 -785 46
-440 51 -519 60 -875 7 -341 11 -373 50 -430 56 -81 57 -212 6 -485 -40 -217
-56 -339 -56 -442 0 -72 1 -75 75 -208 509 -920 1066 -1385 1805 -1509 196
-33 301 -38 910 -46 493 -6 649 -11 740 -24 408 -59 707 -180 1009 -409 57
-43 107 -75 111 -70 4 4 27 53 52 108 57 130 113 217 135 213 27 -5 33 -61 23
-238 -13 -229 -2 -283 46 -227 13 15 29 27 37 27 27 0 59 -49 101 -156 68
-171 92 -214 121 -214 18 0 31 10 45 33 38 61 50 126 58 340 7 166 12 211 24
224 14 13 18 13 41 -2 25 -16 26 -16 43 9 20 31 34 199 24 295 -5 55 -10 67
-38 90 -18 14 -34 39 -38 56 -7 37 38 183 66 217 20 23 20 23 35 3 33 -42 52
-159 90 -535 14 -140 32 -309 41 -375 29 -226 69 -355 110 -355 15 0 16 9 10
68 -3 37 -9 141 -13 232 -7 192 1 237 46 246 24 5 29 15 69 153 64 218 80 240
107 149 24 -79 63 -341 80 -535 9 -95 17 -178 20 -185 2 -7 9 -33 15 -57 l11
-43 49 98 c101 207 197 262 335 192 40 -21 84 -54 230 -173 191 -157 305 -157
407 -4 95 144 159 146 314 12 112 -98 161 -132 200 -139 59 -11 89 10 135 95
49 92 65 111 93 111 29 0 52 -42 75 -132 17 -66 21 -74 47 -79 48 -11 469 -10
619 1 77 6 275 24 440 40 481 47 587 53 878 47 292 -5 403 -18 609 -73 l97
-26 153 31 c767 155 1515 191 3088 148 961 -26 1148 -29 1523 -17 857 25 1486
105 2097 266 204 54 459 185 1190 611 179 104 396 230 482 279 180 102 168 87
231 294 153 503 274 1449 327 2545 26 546 31 808 40 2191 11 1707 16 1976 65
3409 25 726 35 1269 45 2580 6 693 15 1514 20 1825 19 1084 12 2032 -20 2910
-5 151 -12 345 -15 430 -34 1001 -145 2057 -275 2630 -40 176 -59 240 -135
445 -149 402 -287 692 -453 945 -102 157 -151 219 -262 334 -205 212 -393 324
-629 377 -68 15 -123 18 -261 17 -96 0 -186 -2 -200 -5z m-2760 -3463 l0
-1120 -3630 0 -3630 0 0 -2875 0 -2875 3188 -2 3187 -3 3 -1117 2 -1118 -3190
0 -3190 0 0 -3660 0 -3660 -1340 0 -1340 0 0 8775 0 8775 4970 0 4970 0 0
-1120z"/>
</g>
</svg>
